<?xml version="1.0" encoding="utf-8" standalone="no"?>
<!DOCTYPE svg PUBLIC "-//W3C//DTD SVG 1.1//EN"
  "http://www.w3.org/Graphics/SVG/1.1/DTD/svg11.dtd">
<svg xmlns:xlink="http://www.w3.org/1999/xlink" width="1440pt" height="1440pt" viewBox="0 0 1440 1440" xmlns="http://www.w3.org/2000/svg" version="1.1">
 <metadata>
  <rdf:RDF xmlns:dc="http://purl.org/dc/elements/1.1/" xmlns:cc="http://creativecommons.org/ns#" xmlns:rdf="http://www.w3.org/1999/02/22-rdf-syntax-ns#">
   <cc:Work>
    <dc:type rdf:resource="http://purl.org/dc/dcmitype/StillImage"/>
    <dc:date>2024-11-14T14:48:02.414540</dc:date>
    <dc:format>image/svg+xml</dc:format>
    <dc:creator>
     <cc:Agent>
      <dc:title>Matplotlib v3.9.2, https://matplotlib.org/</dc:title>
     </cc:Agent>
    </dc:creator>
   </cc:Work>
  </rdf:RDF>
 </metadata>
 <defs>
  <style type="text/css">*{stroke-linejoin: round; stroke-linecap: butt}</style>
 </defs>
 <g id="figure_1">
  <g id="patch_1">
   <path d="M 0 1440 
L 1440 1440 
L 1440 0 
L 0 0 
z
" style="fill: #ffffff"/>
  </g>
  <g id="axes_1">
   <g id="line2d_1">
    <path d="M 936.106444 774.173411 
L 938.611716 796.605412 
L 939.142129 803.766089 
L 939.404674 810.584824 
L 939.292751 816.765727 
L 938.755765 821.698388 
L 937.948913 824.785715 
L 937.138417 826.028059 
L 936.138915 826.800945 
L 934.923391 827.246487 
L 933.672099 827.305395 
L 933.242519 827.212682 
L 929.323715 825.971257 
L 709.117671 772.159081 
L 699.37472 770.722298 
L 689.131927 770.317281 
L 678.389889 771.283919 
L 667.277739 774.099059 
L 656.195111 779.347936 
L 645.961218 787.565301 
L 639.580922 796.042682 
L 625.926379 814.633053 
L 616.794367 826.665175 
L 607.420925 838.334467 
L 602.629011 844.032471 
L 597.76991 849.613063 
L 592.846212 855.046705 
L 587.862748 860.291417 
L 582.830034 865.286551 
L 577.771409 869.943447 
L 572.730578 874.13773 
L 567.371782 877.986362 
L 561.597675 881.804259 
L 555.718229 885.344372 
L 549.765193 888.566404 
L 543.779809 891.418784 
L 537.820396 893.836435 
L 531.97404 895.740202 
L 526.373789 897.041706 
L 521.220153 897.661989 
L 516.795058 897.578306 
L 513.431299 896.909783 
L 511.255087 895.915843 
L 510.248744 895.040785 
L 509.97816 894.622747 
L 508.208402 891.118317 
L 504.548466 884.731738 
L 500.970996 878.232313 
L 497.516051 871.684133 
L 494.197183 865.097971 
L 491.033444 858.486169 
L 488.051327 851.864657 
L 485.287521 845.25617 
L 482.792695 838.695714 
L 480.636225 832.24016 
L 478.910566 825.98539 
L 477.727582 820.072738 
L 477.143429 813.820056 
L 476.708186 806.78649 
L 476.517197 799.737368 
L 476.573274 792.702837 
L 476.883937 785.715737 
L 477.461595 778.814909 
L 478.323457 772.049552 
L 479.490681 765.485289 
L 480.985536 759.212727 
L 482.824044 753.359014 
L 484.999084 748.101029 
L 487.445897 743.672262 
L 490.071179 740.261251 
L 499.670407 732.199045 
L 505.367785 727.644034 
L 511.157718 723.234852 
L 517.027781 718.990542 
L 531.788016 708.975263 
L 540.907957 697.965512 
L 546.22339 684.726273 
L 547.24671 670.496582 
L 543.873366 656.604188 
L 534.569117 640.685065 
L 527.120649 627.636122 
L 523.559972 621.082921 
L 520.138219 614.523933 
L 516.889723 607.975641 
L 513.863588 601.465057 
L 511.130281 595.038733 
L 508.789949 588.780049 
L 506.978693 582.842572 
L 505.855851 577.512005 
L 505.513353 573.316784 
L 505.730975 570.824573 
L 506.286014 569.533848 
L 506.915761 568.787957 
L 507.420097 568.369032 
L 507.611884 568.262914 
L 511.367648 566.40941 
L 524.967654 558.350157 
L 538.546493 550.009299 
L 552.059507 541.336761 
L 558.769015 536.843511 
L 563.436923 533.475417 
L 565.98904 532.562134 
L 568.651586 532.310864 
L 571.400153 532.724087 
L 574.188425 533.838744 
L 576.950258 535.722511 
L 580.70104 539.598091 
L 603.031699 561.474999 
L 619.954104 577.815474 
L 631.390042 588.671291 
L 643.094701 599.501874 
L 649.142725 604.911811 
L 655.345484 610.254321 
L 661.66491 615.487478 
L 668.117122 620.610331 
L 674.725366 625.617881 
L 681.523096 630.499985 
L 688.558765 635.239053 
L 695.903411 639.80546 
L 703.662578 644.148207 
L 711.994236 648.175094 
L 721.139686 651.71241 
L 752.359339 660.031122 
L 910.156425 701.947534 
L 917.118715 703.915497 
L 922.474473 705.605706 
L 925.198096 706.839247 
L 926.076563 707.778551 
L 926.619921 708.90787 
L 926.702399 709.340105 
L 927.08646 713.404855 
L 930.68179 736.228189 
L 934.060762 759.093949 
L 936.106444 774.173411 
L 936.106444 774.173411 
" clip-path="url(#p2de07c0919)" style="fill: none; stroke: #000000; stroke-width: 3; stroke-linecap: square"/>
   </g>
   <g id="line2d_2">
    <path d="M 977.826856 769.00251 
L 980.497075 793.0099 
L 981.113564 801.373514 
L 981.441659 810.132659 
L 981.239529 819.539056 
L 979.954561 830.022642 
L 976.283057 842.014808 
L 968.671815 853.796307 
L 957.667183 862.880803 
L 944.419011 868.173931 
L 930.158345 869.175342 
L 919.383179 866.818731 
L 700.980068 813.40361 
L 695.302859 812.56401 
L 689.970057 812.347924 
L 685.184302 812.769334 
L 681.182496 813.768962 
L 678.176562 815.174782 
L 676.23206 816.727209 
L 676.112674 816.893602 
L 673.599051 820.742677 
L 659.645082 839.740363 
L 649.943311 852.520071 
L 644.929652 858.853713 
L 639.814516 865.129682 
L 634.583652 871.349668 
L 629.216199 877.513945 
L 623.68171 883.621177 
L 617.935301 889.667765 
L 611.909606 895.646167 
L 605.50121 901.540653 
L 598.545447 907.318197 
L 591.301885 912.550473 
L 584.088117 917.321998 
L 576.625903 921.816263 
L 568.880846 926.00864 
L 560.80287 929.857613 
L 552.322914 933.2953 
L 543.348348 936.211688 
L 533.761546 938.426622 
L 523.432583 939.642002 
L 512.275175 939.370427 
L 500.404072 936.869357 
L 488.438939 931.210664 
L 477.917127 921.874223 
L 471.943311 912.383274 
L 467.905918 905.338824 
L 463.974811 898.197548 
L 460.163191 890.973827 
L 456.474335 883.653703 
L 452.916231 876.217683 
L 449.502993 868.638282 
L 446.2575 860.876217 
L 443.216304 852.87447 
L 440.439026 844.549119 
L 438.027056 835.775902 
L 436.160981 826.367384 
L 435.240462 817.206235 
L 434.712297 808.703475 
L 434.479994 800.187898 
L 434.546811 791.651255 
L 434.926985 783.080681 
L 435.648032 774.461139 
L 436.754766 765.774774 
L 438.316188 757.000668 
L 440.436952 748.116055 
L 443.276019 739.101875 
L 447.075705 729.96006 
L 452.200947 720.760122 
L 459.180857 711.734659 
L 466.685824 704.99601 
L 473.017006 699.688664 
L 479.480928 694.520036 
L 486.079089 689.494801 
L 492.828281 684.614491 
L 499.694055 679.926335 
L 504.08508 677.379491 
L 504.864406 676.376513 
L 505.311995 675.161741 
L 505.367672 673.868332 
L 505.045114 672.660417 
L 504.82824 672.281016 
L 502.394111 668.820363 
L 494.29329 655.026416 
L 490.336605 647.989556 
L 486.462455 640.859233 
L 482.680932 633.610052 
L 479.008007 626.204844 
L 475.469139 618.587973 
L 472.106494 610.674281 
L 468.994329 602.33096 
L 466.273878 593.349814 
L 464.235283 583.415724 
L 463.501628 572.124628 
L 465.339349 559.256783 
L 471.208273 546.413319 
L 480.815724 535.823993 
L 490.1614 530.110536 
L 503.268324 522.343669 
L 516.225537 514.384826 
L 528.923713 506.236003 
L 543.493417 496.464992 
L 555.524737 491.844231 
L 568.324317 490.269956 
L 581.011673 491.794965 
L 592.784182 496.132662 
L 603.077594 502.777581 
L 615.726536 515.087551 
L 637.8965 536.728883 
L 654.596978 552.761223 
L 665.754983 563.240576 
L 676.893277 573.332777 
L 682.488707 578.151769 
L 688.162609 582.85007 
L 693.90631 587.410236 
L 699.710438 591.808493 
L 705.563055 596.012177 
L 711.446564 599.976083 
L 717.332233 603.637339 
L 723.170145 606.908734 
L 728.870517 609.671847 
L 734.300306 611.78447 
L 755.613601 617.400784 
L 921.366832 661.430205 
L 929.382762 663.705144 
L 938.76785 666.860911 
L 949.976766 672.905144 
L 960.038998 683.044455 
L 966.53349 695.779788 
L 968.579292 706.64612 
L 972.236546 729.861855 
L 975.68612 753.20688 
L 977.826856 769.00251 
L 977.826856 769.00251 
" clip-path="url(#p2de07c0919)" style="fill: none; stroke: #000000; stroke-width: 3; stroke-linecap: square"/>
   </g>
  </g>
 </g>
 <defs>
  <clipPath id="p2de07c0919">
   <rect x="176.652" y="10.8" width="1121.056" height="1401.32"/>
  </clipPath>
 </defs>
</svg>
